<svg width="700" height="192" viewBox="0 0 700 192" fill="none" xmlns="http://www.w3.org/2000/svg">
<path d="M184.19 125.143C184.19 120.803 187.45 117.343 192.05 117.343C194.82 117.343 197.27 118.783 198.54 120.993L196.8 122.003C195.94 120.353 194.12 119.273 192.05 119.273C188.53 119.273 186.16 121.833 186.16 125.133C186.16 128.433 188.52 130.973 192.05 130.973C194.11 130.973 195.94 129.903 196.8 128.263L198.54 129.253C197.29 131.463 194.84 132.923 192.05 132.923C187.45 132.923 184.19 129.443 184.19 125.123V125.143Z" fill="black"/>
<path d="M211.96 121.913V132.653H210.09V130.803C209.23 132.113 207.86 132.933 206.03 132.933C203.04 132.933 200.59 130.463 200.59 127.283C200.59 124.103 203.04 121.633 206.03 121.633C207.85 121.633 209.23 122.453 210.09 123.763V121.913H211.96ZM210.09 127.283C210.09 125.093 208.44 123.433 206.27 123.433C204.1 123.433 202.47 125.083 202.47 127.283C202.47 129.483 204.13 131.123 206.27 131.123C208.41 131.123 210.09 129.473 210.09 127.283Z" fill="black"/>
<path d="M224.95 126.063V132.653H223.08V126.163C223.08 124.403 222.07 123.413 220.42 123.413C218.77 123.413 217.31 124.423 217.31 126.953V132.643H215.44V121.903H217.31V123.453C218.1 122.183 219.28 121.623 220.79 121.623C223.3 121.623 224.96 123.303 224.96 126.053L224.95 126.063Z" fill="black"/>
<path d="M238.95 121.913V132.653H237.08V130.803C236.22 132.113 234.85 132.933 233.02 132.933C230.03 132.933 227.58 130.463 227.58 127.283C227.58 124.103 230.03 121.633 233.02 121.633C234.84 121.633 236.22 122.453 237.08 123.763V121.913H238.95ZM237.08 127.283C237.08 125.093 235.43 123.433 233.26 123.433C231.09 123.433 229.46 125.083 229.46 127.283C229.46 129.483 231.12 131.123 233.26 131.123C235.4 131.123 237.08 129.473 237.08 127.283Z" fill="black"/>
<path d="M253.19 117.623V132.653H251.32V130.803C250.46 132.113 249.09 132.933 247.26 132.933C244.27 132.933 241.82 130.463 241.82 127.283C241.82 124.103 244.27 121.633 247.26 121.633C249.08 121.633 250.46 122.453 251.32 123.763V117.623H253.19ZM251.32 127.293C251.32 125.103 249.67 123.443 247.5 123.443C245.33 123.443 243.7 125.093 243.7 127.293C243.7 129.493 245.36 131.133 247.5 131.133C249.64 131.133 251.32 129.483 251.32 127.293Z" fill="black"/>
<path d="M256.34 118.713C256.34 118.023 256.9 117.443 257.61 117.443C258.32 117.443 258.86 118.023 258.86 118.713C258.86 119.403 258.3 119.963 257.61 119.963C256.92 119.963 256.34 119.403 256.34 118.713ZM256.66 121.913H258.53V132.653H256.66V121.913Z" fill="black"/>
<path d="M272.79 121.913V132.653H270.92V130.803C270.06 132.113 268.69 132.933 266.86 132.933C263.87 132.933 261.42 130.463 261.42 127.283C261.42 124.103 263.87 121.633 266.86 121.633C268.68 121.633 270.06 122.453 270.92 123.763V121.913H272.79ZM270.92 127.283C270.92 125.093 269.27 123.433 267.1 123.433C264.93 123.433 263.3 125.083 263.3 127.283C263.3 129.483 264.96 131.123 267.1 131.123C269.24 131.123 270.92 129.473 270.92 127.283Z" fill="black"/>
<path d="M285.78 126.063V132.653H283.91V126.163C283.91 124.403 282.9 123.413 281.25 123.413C279.6 123.413 278.14 124.423 278.14 126.953V132.643H276.27V121.903H278.14V123.453C278.93 122.183 280.11 121.623 281.62 121.623C284.13 121.623 285.79 123.303 285.79 126.053L285.78 126.063Z" fill="black"/>
<path d="M297.22 117.623V132.653H295.22V117.623H297.22Z" fill="black"/>
<path d="M310.4 126.063V132.653H308.53V126.163C308.53 124.403 307.52 123.413 305.87 123.413C304.22 123.413 302.76 124.423 302.76 126.953V132.643H300.89V121.903H302.76V123.453C303.55 122.183 304.73 121.623 306.24 121.623C308.75 121.623 310.41 123.303 310.41 126.053L310.4 126.063Z" fill="black"/>
<path d="M323.03 121.913L318.73 132.653H316.54L312.24 121.913H314.26L317.63 130.653L321 121.913H323.02H323.03Z" fill="black"/>
<path d="M330.03 131.173C331.51 131.173 332.59 130.483 333.12 129.603L334.71 130.503C333.77 131.963 332.13 132.933 329.99 132.933C326.53 132.933 324.23 130.503 324.23 127.283C324.23 124.063 326.51 121.633 329.86 121.633C333.21 121.633 335.21 124.293 335.21 127.303C335.21 127.583 335.19 127.863 335.15 128.143H326.15C326.52 130.073 328.04 131.173 330.04 131.173H330.03ZM326.14 126.513H333.31C332.99 124.383 331.46 123.403 329.85 123.403C327.83 123.403 326.43 124.653 326.13 126.513H326.14Z" fill="black"/>
<path d="M345.19 129.713C345.19 131.713 343.47 132.933 341.17 132.933C339.02 132.933 337.52 131.903 336.9 130.423L338.51 129.503C338.85 130.533 339.84 131.173 341.17 131.173C342.31 131.173 343.29 130.763 343.29 129.713C343.29 127.413 337.28 128.723 337.28 124.833C337.28 122.943 338.91 121.633 341.08 121.633C342.84 121.633 344.26 122.473 344.95 123.863L343.38 124.743C342.97 123.773 342.03 123.373 341.08 123.373C340.13 123.373 339.17 123.843 339.17 124.813C339.17 127.113 345.18 125.763 345.18 129.713H345.19Z" fill="black"/>
<path d="M350.6 123.723V129.543C350.6 131.173 351.55 131.073 353.46 130.983V132.663C350.24 133.093 348.73 132.233 348.73 129.553V123.733H346.61V121.933H348.73V119.483L350.6 118.923V121.933H353.46V123.733H350.6V123.723Z" fill="black"/>
<path d="M372.01 125.973V132.653H370.14V126.033C370.14 124.333 369.19 123.413 367.78 123.413C366.28 123.413 365.14 124.363 365.14 126.673V132.643H363.27V126.023C363.27 124.323 362.39 123.403 360.99 123.403C359.59 123.403 358.24 124.353 358.24 126.663V132.633H356.37V121.893H358.24V123.333C359.01 122.133 360.13 121.613 361.44 121.613C362.9 121.613 363.97 122.283 364.6 123.443C365.35 122.223 366.57 121.613 367.97 121.613C370.35 121.613 372.01 123.263 372.01 125.953V125.973Z" fill="black"/>
<path d="M380.44 131.173C381.92 131.173 383 130.483 383.53 129.603L385.12 130.503C384.18 131.963 382.54 132.933 380.4 132.933C376.94 132.933 374.64 130.503 374.64 127.283C374.64 124.063 376.92 121.633 380.27 121.633C383.62 121.633 385.62 124.293 385.62 127.303C385.62 127.583 385.6 127.863 385.56 128.143H376.56C376.93 130.073 378.45 131.173 380.45 131.173H380.44ZM376.55 126.513H383.72C383.4 124.383 381.87 123.403 380.26 123.403C378.24 123.403 376.85 124.653 376.55 126.513Z" fill="black"/>
<path d="M397.92 126.063V132.653H396.05V126.163C396.05 124.403 395.04 123.413 393.39 123.413C391.74 123.413 390.28 124.423 390.28 126.953V132.643H388.41V121.903H390.28V123.453C391.07 122.183 392.25 121.623 393.76 121.623C396.27 121.623 397.93 123.303 397.93 126.053L397.92 126.063Z" fill="black"/>
<path d="M404.14 123.723V129.543C404.14 131.173 405.09 131.073 407 130.983V132.663C403.78 133.093 402.27 132.233 402.27 129.553V123.733H400.15V121.933H402.27V119.483L404.14 118.923V121.933H407V123.733H404.14V123.723Z" fill="black"/>
<path d="M190.53 153.993H186.99V159.753H184.99V144.723H191C193.58 144.723 195.68 146.803 195.68 149.383C195.68 151.363 194.37 153.093 192.57 153.743L196.12 159.753H193.91L190.54 153.993H190.53ZM186.99 152.193H191.01C192.49 152.193 193.69 150.923 193.69 149.383C193.69 147.843 192.49 146.593 191.01 146.593H186.99V152.203V152.193Z" fill="black"/>
<path d="M203.22 158.273C204.7 158.273 205.78 157.583 206.31 156.703L207.9 157.603C206.96 159.063 205.32 160.033 203.18 160.033C199.72 160.033 197.42 157.603 197.42 154.383C197.42 151.163 199.7 148.733 203.05 148.733C206.4 148.733 208.4 151.393 208.4 154.403C208.4 154.683 208.38 154.963 208.34 155.243H199.34C199.71 157.173 201.23 158.273 203.23 158.273H203.22ZM199.33 153.613H206.5C206.18 151.483 204.65 150.503 203.04 150.503C201.02 150.503 199.62 151.753 199.32 153.613H199.33Z" fill="black"/>
<path d="M221.92 149.013V159.303C221.92 162.653 219.24 164.333 216.44 164.333C214.03 164.333 212.23 163.413 211.35 161.713L212.98 160.793C213.47 161.803 214.38 162.593 216.48 162.593C218.71 162.593 220.07 161.323 220.07 159.303V157.783C219.21 159.093 217.84 159.933 216.03 159.933C212.98 159.933 210.55 157.463 210.55 154.323C210.55 151.183 212.98 148.743 216.03 148.743C217.84 148.743 219.21 149.563 220.07 150.873V149.023H221.92V149.013ZM220.07 154.313C220.07 152.163 218.41 150.513 216.25 150.513C214.09 150.513 212.43 152.163 212.43 154.313C212.43 156.463 214.09 158.133 216.25 158.133C218.41 158.133 220.07 156.483 220.07 154.313Z" fill="black"/>
<path d="M234.68 149.013V159.753H232.81V158.203C232.01 159.473 230.83 160.033 229.33 160.033C226.82 160.033 225.16 158.353 225.16 155.603V149.013H227.03V155.503C227.03 157.263 228.04 158.253 229.69 158.253C231.34 158.253 232.8 157.243 232.8 154.713V149.023H234.67L234.68 149.013Z" fill="black"/>
<path d="M238.15 144.073H240.02V159.753H238.15V144.073Z" fill="black"/>
<path d="M254.28 149.013V159.753H252.41V157.903C251.55 159.213 250.18 160.033 248.35 160.033C245.36 160.033 242.91 157.563 242.91 154.383C242.91 151.203 245.36 148.733 248.35 148.733C250.17 148.733 251.55 149.553 252.41 150.863V149.013H254.28ZM252.41 154.383C252.41 152.193 250.76 150.533 248.59 150.533C246.42 150.533 244.79 152.183 244.79 154.383C244.79 156.583 246.45 158.223 248.59 158.223C250.73 158.223 252.41 156.573 252.41 154.383Z" fill="black"/>
<path d="M260.74 150.813V156.633C260.74 158.263 261.69 158.163 263.6 158.073V159.753C260.38 160.183 258.87 159.323 258.87 156.643V150.823H256.75V149.023H258.87V146.573L260.74 146.013V149.023H263.6V150.823H260.74V150.813Z" fill="black"/>
<path d="M265.31 154.383C265.31 151.203 267.82 148.733 270.96 148.733C274.1 148.733 276.63 151.203 276.63 154.383C276.63 157.563 274.1 160.033 270.96 160.033C267.82 160.033 265.31 157.563 265.31 154.383ZM274.76 154.383C274.76 152.213 273.11 150.563 270.96 150.563C268.81 150.563 267.18 152.213 267.18 154.383C267.18 156.553 268.84 158.203 270.96 158.203C273.08 158.203 274.76 156.553 274.76 154.383Z" fill="black"/>
<path d="M284.7 148.823V150.783C283.09 150.713 281.35 151.533 281.35 154.073V159.763H279.48V149.023H281.35V150.823C282.04 149.323 283.35 148.823 284.7 148.823Z" fill="black"/>
<path d="M296.9 149.013L292.52 160.413C291.62 162.823 289.94 164.193 287.75 164.043V162.303C289.19 162.413 290.09 161.533 290.65 160.113L290.84 159.703L286.16 149.003H288.16L291.81 157.423L294.9 149.003H296.9V149.013Z" fill="black"/>
<path d="M184.19 179.323C184.19 174.983 187.6 171.523 191.97 171.523C196.34 171.523 199.77 174.983 199.77 179.323C199.77 183.663 196.33 187.123 191.97 187.123C187.61 187.123 184.19 183.643 184.19 179.323ZM197.76 179.323C197.76 176.013 195.25 173.463 191.96 173.463C188.67 173.463 186.16 176.023 186.16 179.323C186.16 182.623 188.67 185.163 191.96 185.163C195.25 185.163 197.76 182.603 197.76 179.323Z" fill="black"/>
<path d="M207.83 175.913V177.873C206.22 177.803 204.48 178.623 204.48 181.163V186.853H202.61V176.113H204.48V177.913C205.17 176.413 206.48 175.913 207.83 175.913Z" fill="black"/>
<path d="M220.48 176.103V186.393C220.48 189.743 217.8 191.423 215 191.423C212.59 191.423 210.79 190.503 209.91 188.803L211.54 187.883C212.03 188.893 212.94 189.683 215.04 189.683C217.27 189.683 218.63 188.413 218.63 186.393V184.873C217.77 186.183 216.4 187.023 214.59 187.023C211.54 187.023 209.11 184.553 209.11 181.413C209.11 178.273 211.54 175.833 214.59 175.833C216.4 175.833 217.77 176.653 218.63 177.963V176.113H220.48V176.103ZM218.63 181.403C218.63 179.253 216.97 177.603 214.81 177.603C212.65 177.603 210.99 179.253 210.99 181.403C210.99 183.553 212.65 185.223 214.81 185.223C216.97 185.223 218.63 183.573 218.63 181.403Z" fill="black"/>
<path d="M234.72 176.103V186.843H232.85V184.993C231.99 186.303 230.62 187.123 228.79 187.123C225.8 187.123 223.35 184.653 223.35 181.473C223.35 178.293 225.8 175.823 228.79 175.823C230.61 175.823 231.99 176.643 232.85 177.953V176.103H234.72ZM232.85 181.473C232.85 179.283 231.2 177.623 229.03 177.623C226.86 177.623 225.23 179.273 225.23 181.473C225.23 183.673 226.89 185.313 229.03 185.313C231.17 185.313 232.85 183.663 232.85 181.473Z" fill="black"/>
<path d="M247.71 180.253V186.843H245.84V180.353C245.84 178.593 244.83 177.603 243.18 177.603C241.53 177.603 240.07 178.613 240.07 181.143V186.833H238.2V176.093H240.07V177.643C240.86 176.373 242.04 175.813 243.55 175.813C246.06 175.813 247.72 177.493 247.72 180.243L247.71 180.253Z" fill="black"/>
<path d="M250.63 172.903C250.63 172.213 251.19 171.633 251.9 171.633C252.61 171.633 253.15 172.213 253.15 172.903C253.15 173.593 252.59 174.153 251.9 174.153C251.21 174.153 250.63 173.593 250.63 172.903ZM250.95 176.103H252.82V186.843H250.95V176.103Z" fill="black"/>
<path d="M264.2 185.063V186.843H255.93V185.593L261.41 177.883H256.15V176.103H263.99V177.353L258.49 185.063H264.2Z" fill="black"/>
<path d="M277.17 176.103V186.843H275.3V184.993C274.44 186.303 273.07 187.123 271.24 187.123C268.25 187.123 265.8 184.653 265.8 181.473C265.8 178.293 268.25 175.823 271.24 175.823C273.06 175.823 274.44 176.643 275.3 177.953V176.103H277.17ZM275.3 181.473C275.3 179.283 273.65 177.623 271.48 177.623C269.31 177.623 267.68 179.273 267.68 181.473C267.68 183.673 269.34 185.313 271.48 185.313C273.62 185.313 275.3 183.663 275.3 181.473Z" fill="black"/>
<path d="M283.63 177.913V183.733C283.63 185.363 284.58 185.263 286.49 185.173V186.853C283.27 187.283 281.76 186.423 281.76 183.743V177.923H279.64V176.123H281.76V173.673L283.63 173.113V176.123H286.49V177.923H283.63V177.913Z" fill="black"/>
<path d="M289.02 172.903C289.02 172.213 289.58 171.633 290.29 171.633C291 171.633 291.54 172.213 291.54 172.903C291.54 173.593 290.98 174.153 290.29 174.153C289.6 174.153 289.02 173.593 289.02 172.903ZM289.34 176.103H291.21V186.843H289.34V176.103Z" fill="black"/>
<path d="M294.1 181.473C294.1 178.293 296.61 175.823 299.75 175.823C302.89 175.823 305.42 178.293 305.42 181.473C305.42 184.653 302.89 187.123 299.75 187.123C296.61 187.123 294.1 184.653 294.1 181.473ZM303.55 181.473C303.55 179.303 301.9 177.653 299.75 177.653C297.6 177.653 295.97 179.303 295.97 181.473C295.97 183.643 297.63 185.293 299.75 185.293C301.87 185.293 303.55 183.643 303.55 181.473Z" fill="black"/>
<path d="M317.79 180.253V186.843H315.92V180.353C315.92 178.593 314.91 177.603 313.26 177.603C311.61 177.603 310.15 178.613 310.15 181.143V186.833H308.28V176.093H310.15V177.643C310.94 176.373 312.12 175.813 313.63 175.813C316.14 175.813 317.8 177.493 317.8 180.243L317.79 180.253Z" fill="black"/>
<path d="M473.5 125.143C473.5 120.803 476.91 117.343 481.28 117.343C485.65 117.343 489.08 120.803 489.08 125.143C489.08 129.483 485.64 132.943 481.28 132.943C476.92 132.943 473.5 129.463 473.5 125.143ZM487.07 125.143C487.07 121.833 484.56 119.283 481.27 119.283C477.98 119.283 475.47 121.843 475.47 125.143C475.47 128.443 477.98 130.983 481.27 130.983C484.56 130.983 487.07 128.423 487.07 125.143Z" fill="black"/>
<path d="M497.14 121.723V123.683C495.53 123.613 493.79 124.433 493.79 126.973V132.663H491.92V121.923H493.79V123.723C494.48 122.223 495.79 121.723 497.14 121.723Z" fill="black"/>
<path d="M509.79 121.913V132.203C509.79 135.553 507.11 137.233 504.31 137.233C501.9 137.233 500.1 136.313 499.22 134.613L500.85 133.693C501.34 134.703 502.25 135.493 504.35 135.493C506.58 135.493 507.94 134.223 507.94 132.203V130.683C507.08 131.993 505.71 132.833 503.9 132.833C500.85 132.833 498.42 130.363 498.42 127.223C498.42 124.083 500.85 121.643 503.9 121.643C505.71 121.643 507.08 122.463 507.94 123.773V121.923H509.79V121.913ZM507.94 127.213C507.94 125.063 506.28 123.413 504.12 123.413C501.96 123.413 500.3 125.063 500.3 127.213C500.3 129.363 501.96 131.033 504.12 131.033C506.28 131.033 507.94 129.383 507.94 127.213Z" fill="black"/>
<path d="M524.03 121.913V132.653H522.16V130.803C521.3 132.113 519.93 132.933 518.1 132.933C515.11 132.933 512.66 130.463 512.66 127.283C512.66 124.103 515.11 121.633 518.1 121.633C519.92 121.633 521.3 122.453 522.16 123.763V121.913H524.03ZM522.16 127.283C522.16 125.093 520.51 123.433 518.34 123.433C516.17 123.433 514.54 125.083 514.54 127.283C514.54 129.483 516.2 131.123 518.34 131.123C520.48 131.123 522.16 129.473 522.16 127.283Z" fill="black"/>
<path d="M537.02 126.063V132.653H535.15V126.163C535.15 124.403 534.14 123.413 532.49 123.413C530.84 123.413 529.38 124.423 529.38 126.953V132.643H527.51V121.903H529.38V123.453C530.17 122.183 531.35 121.623 532.86 121.623C535.37 121.623 537.03 123.303 537.03 126.053L537.02 126.063Z" fill="black"/>
<path d="M539.93 118.713C539.93 118.023 540.49 117.443 541.2 117.443C541.91 117.443 542.45 118.023 542.45 118.713C542.45 119.403 541.89 119.963 541.2 119.963C540.51 119.963 539.93 119.403 539.93 118.713ZM540.25 121.913H542.12V132.653H540.25V121.913Z" fill="black"/>
<path d="M553.23 129.713C553.23 131.713 551.51 132.933 549.21 132.933C547.06 132.933 545.56 131.903 544.94 130.423L546.55 129.503C546.89 130.533 547.88 131.173 549.21 131.173C550.35 131.173 551.33 130.763 551.33 129.713C551.33 127.413 545.32 128.723 545.32 124.833C545.32 122.943 546.95 121.633 549.12 121.633C550.88 121.633 552.3 122.473 552.99 123.863L551.42 124.743C551.01 123.773 550.07 123.373 549.12 123.373C548.17 123.373 547.21 123.843 547.21 124.813C547.21 127.113 553.22 125.763 553.22 129.713H553.23Z" fill="black"/>
<path d="M571.72 125.973V132.653H569.85V126.033C569.85 124.333 568.9 123.413 567.49 123.413C565.99 123.413 564.85 124.363 564.85 126.673V132.643H562.98V126.023C562.98 124.323 562.1 123.403 560.7 123.403C559.3 123.403 557.95 124.353 557.95 126.663V132.633H556.08V121.893H557.95V123.333C558.72 122.133 559.84 121.613 561.15 121.613C562.61 121.613 563.69 122.283 564.31 123.443C565.06 122.223 566.28 121.613 567.68 121.613C570.06 121.613 571.72 123.263 571.72 125.953V125.973Z" fill="black"/>
<path d="M580.15 131.173C581.63 131.173 582.71 130.483 583.24 129.603L584.83 130.503C583.89 131.963 582.25 132.933 580.11 132.933C576.65 132.933 574.35 130.503 574.35 127.283C574.35 124.063 576.63 121.633 579.98 121.633C583.33 121.633 585.33 124.293 585.33 127.303C585.33 127.583 585.31 127.863 585.27 128.143H576.27C576.64 130.073 578.16 131.173 580.16 131.173H580.15ZM576.26 126.513H583.43C583.11 124.383 581.58 123.403 579.97 123.403C577.95 123.403 576.55 124.653 576.25 126.513H576.26Z" fill="black"/>
<path d="M593.52 127.283C593.52 124.103 595.93 121.633 599.17 121.633C601.3 121.633 603.1 122.753 603.92 124.443L602.35 125.343C601.81 124.203 600.61 123.453 599.17 123.453C597.02 123.453 595.39 125.103 595.39 127.273C595.39 129.443 597.02 131.073 599.17 131.073C600.63 131.073 601.81 130.323 602.41 129.203L604 130.123C603.1 131.803 601.27 132.913 599.17 132.913C595.93 132.913 593.52 130.443 593.52 127.263V127.283Z" fill="black"/>
<path d="M617.1 121.913V132.653H615.23V130.803C614.37 132.113 613 132.933 611.17 132.933C608.18 132.933 605.73 130.463 605.73 127.283C605.73 124.103 608.18 121.633 611.17 121.633C612.99 121.633 614.37 122.453 615.23 123.763V121.913H617.1ZM615.23 127.283C615.23 125.093 613.58 123.433 611.41 123.433C609.24 123.433 607.61 125.083 607.61 127.283C607.61 129.483 609.27 131.123 611.41 131.123C613.55 131.123 615.23 129.473 615.23 127.283Z" fill="black"/>
<path d="M630.09 126.063V132.653H628.22V126.163C628.22 124.403 627.21 123.413 625.56 123.413C623.91 123.413 622.45 124.423 622.45 126.953V132.643H620.58V121.903H622.45V123.453C623.24 122.183 624.42 121.623 625.93 121.623C628.44 121.623 630.1 123.303 630.1 126.053L630.09 126.063Z" fill="black"/>
<path d="M644.09 121.913V132.653H642.22V130.803C641.36 132.113 639.99 132.933 638.16 132.933C635.17 132.933 632.72 130.463 632.72 127.283C632.72 124.103 635.17 121.633 638.16 121.633C639.98 121.633 641.36 122.453 642.22 123.763V121.913H644.09ZM642.22 127.283C642.22 125.093 640.57 123.433 638.4 123.433C636.23 123.433 634.6 125.083 634.6 127.283C634.6 129.483 636.26 131.123 638.4 131.123C640.54 131.123 642.22 129.473 642.22 127.283Z" fill="black"/>
<path d="M658.33 117.623V132.653H656.46V130.803C655.6 132.113 654.23 132.933 652.4 132.933C649.41 132.933 646.96 130.463 646.96 127.283C646.96 124.103 649.41 121.633 652.4 121.633C654.22 121.633 655.6 122.453 656.46 123.763V117.623H658.33ZM656.46 127.293C656.46 125.103 654.81 123.443 652.64 123.443C650.47 123.443 648.84 125.093 648.84 127.293C648.84 129.493 650.5 131.133 652.64 131.133C654.78 131.133 656.46 129.483 656.46 127.293Z" fill="black"/>
<path d="M661.48 118.713C661.48 118.023 662.04 117.443 662.75 117.443C663.46 117.443 664 118.023 664 118.713C664 119.403 663.44 119.963 662.75 119.963C662.06 119.963 661.48 119.403 661.48 118.713ZM661.8 121.913H663.67V132.653H661.8V121.913Z" fill="black"/>
<path d="M672.37 131.173C673.85 131.173 674.93 130.483 675.46 129.603L677.05 130.503C676.11 131.963 674.47 132.933 672.33 132.933C668.87 132.933 666.57 130.503 666.57 127.283C666.57 124.063 668.85 121.633 672.2 121.633C675.55 121.633 677.55 124.293 677.55 127.303C677.55 127.583 677.53 127.863 677.49 128.143H668.49C668.86 130.073 670.38 131.173 672.38 131.173H672.37ZM668.48 126.513H675.65C675.33 124.383 673.8 123.403 672.19 123.403C670.17 123.403 668.78 124.653 668.48 126.513Z" fill="black"/>
<path d="M689.85 126.063V132.653H687.98V126.163C687.98 124.403 686.97 123.413 685.32 123.413C683.67 123.413 682.21 124.423 682.21 126.953V132.643H680.34V121.903H682.21V123.453C683 122.183 684.18 121.623 685.69 121.623C688.2 121.623 689.86 123.303 689.86 126.053L689.85 126.063Z" fill="black"/>
<path d="M484.86 144.713V159.743H482.99V157.893C482.13 159.203 480.76 160.023 478.93 160.023C475.94 160.023 473.49 157.553 473.49 154.373C473.49 151.193 475.94 148.723 478.93 148.723C480.75 148.723 482.13 149.543 482.99 150.853V144.713H484.86ZM482.99 154.383C482.99 152.193 481.34 150.533 479.17 150.533C477 150.533 475.37 152.183 475.37 154.383C475.37 156.583 477.03 158.223 479.17 158.223C481.31 158.223 482.99 156.573 482.99 154.383Z" fill="black"/>
<path d="M493.54 158.273C495.02 158.273 496.1 157.583 496.63 156.703L498.22 157.603C497.28 159.063 495.64 160.033 493.5 160.033C490.04 160.033 487.74 157.603 487.74 154.383C487.74 151.163 490.02 148.733 493.37 148.733C496.72 148.733 498.72 151.393 498.72 154.403C498.72 154.683 498.7 154.963 498.66 155.243H489.66C490.03 157.173 491.55 158.273 493.55 158.273H493.54ZM489.65 153.613H496.82C496.5 151.483 494.97 150.503 493.36 150.503C491.34 150.503 489.94 151.753 489.64 153.613H489.65Z" fill="black"/>
<path d="M512.73 148.823V150.783C511.12 150.713 509.38 151.533 509.38 154.073V159.763H507.51V149.023H509.38V150.823C510.07 149.323 511.38 148.823 512.73 148.823Z" fill="black"/>
<path d="M519.82 158.273C521.3 158.273 522.38 157.583 522.91 156.703L524.5 157.603C523.56 159.063 521.92 160.033 519.78 160.033C516.32 160.033 514.02 157.603 514.02 154.383C514.02 151.163 516.3 148.733 519.65 148.733C523 148.733 525 151.393 525 154.403C525 154.683 524.98 154.963 524.94 155.243H515.94C516.31 157.173 517.83 158.273 519.83 158.273H519.82ZM515.93 153.613H523.1C522.78 151.483 521.25 150.503 519.64 150.503C517.62 150.503 516.23 151.753 515.93 153.613ZM520.03 147.533H518.23L519.95 144.693H522.21L520.04 147.533H520.03Z" fill="black"/>
<path d="M538.52 149.013V159.303C538.52 162.653 535.84 164.333 533.04 164.333C530.63 164.333 528.83 163.413 527.95 161.713L529.58 160.793C530.07 161.803 530.98 162.593 533.08 162.593C535.31 162.593 536.67 161.323 536.67 159.303V157.783C535.81 159.093 534.44 159.933 532.63 159.933C529.58 159.933 527.15 157.463 527.15 154.323C527.15 151.183 529.58 148.743 532.63 148.743C534.44 148.743 535.81 149.563 536.67 150.873V149.023H538.52V149.013ZM536.67 154.313C536.67 152.163 535.01 150.513 532.85 150.513C530.69 150.513 529.03 152.163 529.03 154.313C529.03 156.463 530.69 158.133 532.85 158.133C535.01 158.133 536.67 156.483 536.67 154.313Z" fill="black"/>
<path d="M541.99 144.073H543.86V159.753H541.99V144.073Z" fill="black"/>
<path d="M552.56 158.273C554.04 158.273 555.12 157.583 555.65 156.703L557.24 157.603C556.3 159.063 554.66 160.033 552.52 160.033C549.06 160.033 546.76 157.603 546.76 154.383C546.76 151.163 549.04 148.733 552.39 148.733C555.74 148.733 557.74 151.393 557.74 154.403C557.74 154.683 557.72 154.963 557.68 155.243H548.68C549.05 157.173 550.57 158.273 552.57 158.273H552.56ZM548.67 153.613H555.84C555.52 151.483 553.99 150.503 552.38 150.503C550.36 150.503 548.97 151.753 548.67 153.613Z" fill="black"/>
<path d="M576.16 153.073V159.753H574.29V153.133C574.29 151.433 573.34 150.513 571.93 150.513C570.43 150.513 569.29 151.463 569.29 153.773V159.743H567.42V153.123C567.42 151.423 566.54 150.503 565.14 150.503C563.74 150.503 562.39 151.453 562.39 153.763V159.733H560.52V148.993H562.39V150.433C563.16 149.233 564.28 148.713 565.59 148.713C567.05 148.713 568.12 149.383 568.75 150.543C569.5 149.323 570.72 148.713 572.12 148.713C574.5 148.713 576.16 150.363 576.16 153.053V153.073Z" fill="black"/>
<path d="M584.59 158.273C586.07 158.273 587.15 157.583 587.68 156.703L589.27 157.603C588.33 159.063 586.69 160.033 584.55 160.033C581.09 160.033 578.79 157.603 578.79 154.383C578.79 151.163 581.07 148.733 584.42 148.733C587.77 148.733 589.77 151.393 589.77 154.403C589.77 154.683 589.75 154.963 589.71 155.243H580.71C581.08 157.173 582.6 158.273 584.6 158.273H584.59ZM580.7 153.613H587.87C587.55 151.483 586.02 150.503 584.41 150.503C582.39 150.503 580.99 151.753 580.69 153.613H580.7Z" fill="black"/>
<path d="M602.07 153.153V159.743H600.2V153.253C600.2 151.493 599.19 150.503 597.54 150.503C595.89 150.503 594.43 151.513 594.43 154.043V159.733H592.56V148.993H594.43V150.543C595.22 149.273 596.4 148.713 597.91 148.713C600.42 148.713 602.08 150.393 602.08 153.143L602.07 153.153Z" fill="black"/>
<path d="M608.3 150.813V156.633C608.3 158.263 609.25 158.163 611.16 158.073V159.753C607.94 160.183 606.43 159.323 606.43 156.643V150.823H604.31V149.023H606.43V146.573L608.3 146.013V149.023H611.16V150.823H608.3V150.813Z" fill="black"/>
<path d="M624.23 149.013V159.753H622.36V157.903C621.5 159.213 620.13 160.033 618.3 160.033C615.31 160.033 612.86 157.563 612.86 154.383C612.86 151.203 615.31 148.733 618.3 148.733C620.12 148.733 621.5 149.553 622.36 150.863V149.013H624.23ZM622.36 154.383C622.36 152.193 620.71 150.533 618.54 150.533C616.37 150.533 614.74 152.183 614.74 154.383C614.74 156.583 616.4 158.223 618.54 158.223C620.68 158.223 622.36 156.573 622.36 154.383Z" fill="black"/>
<path d="M630.69 150.813V156.633C630.69 158.263 631.64 158.163 633.55 158.073V159.753C630.33 160.183 628.82 159.323 628.82 156.643V150.823H626.7V149.023H628.82V146.573L630.69 146.013V149.023H633.55V150.823H630.69V150.813Z" fill="black"/>
<path d="M636.08 145.813C636.08 145.123 636.64 144.543 637.35 144.543C638.06 144.543 638.6 145.123 638.6 145.813C638.6 146.503 638.04 147.063 637.35 147.063C636.66 147.063 636.08 146.503 636.08 145.813ZM636.4 149.013H638.27V159.753H636.4V149.013Z" fill="black"/>
<path d="M641.17 154.383C641.17 151.203 643.68 148.733 646.82 148.733C649.96 148.733 652.49 151.203 652.49 154.383C652.49 157.563 649.96 160.033 646.82 160.033C643.68 160.033 641.17 157.563 641.17 154.383ZM650.62 154.383C650.62 152.213 648.97 150.563 646.82 150.563C644.67 150.563 643.04 152.213 643.04 154.383C643.04 156.553 644.7 158.203 646.82 158.203C648.94 158.203 650.62 156.553 650.62 154.383Z" fill="black"/>
<path d="M664.85 153.153V159.743H662.98V153.253C662.98 151.493 661.97 150.503 660.32 150.503C658.67 150.503 657.21 151.513 657.21 154.043V159.733H655.34V148.993H657.21V150.543C658 149.273 659.18 148.713 660.69 148.713C663.2 148.713 664.86 150.393 664.86 153.143L664.85 153.153Z" fill="black"/>
<path d="M484.86 171.813V186.843H482.99V184.993C482.13 186.303 480.76 187.123 478.93 187.123C475.94 187.123 473.49 184.653 473.49 181.473C473.49 178.293 475.94 175.823 478.93 175.823C480.75 175.823 482.13 176.643 482.99 177.953V171.813H484.86ZM482.99 181.483C482.99 179.293 481.34 177.633 479.17 177.633C477 177.633 475.37 179.283 475.37 181.483C475.37 183.683 477.03 185.323 479.17 185.323C481.31 185.323 482.99 183.673 482.99 181.483Z" fill="black"/>
<path d="M493.54 185.363C495.02 185.363 496.1 184.673 496.63 183.793L498.22 184.693C497.28 186.153 495.64 187.123 493.5 187.123C490.04 187.123 487.74 184.693 487.74 181.473C487.74 178.253 490.02 175.823 493.37 175.823C496.72 175.823 498.72 178.483 498.72 181.493C498.72 181.773 498.7 182.053 498.66 182.333H489.66C490.03 184.263 491.55 185.363 493.55 185.363H493.54ZM489.65 180.703H496.82C496.5 178.573 494.97 177.593 493.36 177.593C491.34 177.593 489.94 178.843 489.64 180.703H489.65Z" fill="black"/>
<path d="M508.69 183.903C508.69 185.903 506.97 187.123 504.67 187.123C502.52 187.123 501.02 186.093 500.4 184.613L502.01 183.693C502.35 184.723 503.34 185.363 504.67 185.363C505.81 185.363 506.79 184.953 506.79 183.903C506.79 181.603 500.78 182.913 500.78 179.023C500.78 177.133 502.41 175.823 504.58 175.823C506.34 175.823 507.76 176.663 508.45 178.053L506.88 178.933C506.47 177.963 505.53 177.563 504.58 177.563C503.63 177.563 502.67 178.033 502.67 179.003C502.67 181.303 508.68 179.953 508.68 183.903H508.69Z" fill="black"/>
<path d="M517.24 172.903C517.24 172.213 517.8 171.633 518.51 171.633C519.22 171.633 519.76 172.213 519.76 172.903C519.76 173.593 519.2 174.153 518.51 174.153C517.82 174.153 517.24 173.593 517.24 172.903ZM517.56 176.103H519.43V186.843H517.56V176.103Z" fill="black"/>
<path d="M532.44 180.253V186.843H530.57V180.353C530.57 178.593 529.56 177.603 527.91 177.603C526.26 177.603 524.8 178.613 524.8 181.143V186.833H522.93V176.093H524.8V177.643C525.59 176.373 526.77 175.813 528.28 175.813C530.79 175.813 532.45 177.493 532.45 180.243L532.44 180.253Z" fill="black"/>
<path d="M545.07 176.103L540.77 186.843H538.58L534.28 176.103H536.3L539.67 184.843L543.04 176.103H545.06H545.07Z" fill="black"/>
<path d="M552.06 185.363C553.54 185.363 554.62 184.673 555.15 183.793L556.74 184.693C555.8 186.153 554.16 187.123 552.02 187.123C548.56 187.123 546.26 184.693 546.26 181.473C546.26 178.253 548.54 175.823 551.89 175.823C555.24 175.823 557.24 178.483 557.24 181.493C557.24 181.773 557.22 182.053 557.18 182.333H548.18C548.55 184.263 550.07 185.363 552.07 185.363H552.06ZM548.17 180.703H555.34C555.02 178.573 553.49 177.593 551.88 177.593C549.86 177.593 548.46 178.843 548.16 180.703H548.17Z" fill="black"/>
<path d="M567.22 183.903C567.22 185.903 565.5 187.123 563.2 187.123C561.05 187.123 559.55 186.093 558.93 184.613L560.54 183.693C560.88 184.723 561.87 185.363 563.2 185.363C564.34 185.363 565.32 184.953 565.32 183.903C565.32 181.603 559.31 182.913 559.31 179.023C559.31 177.133 560.94 175.823 563.11 175.823C564.87 175.823 566.29 176.663 566.98 178.053L565.41 178.933C565 177.963 564.06 177.563 563.11 177.563C562.16 177.563 561.2 178.033 561.2 179.003C561.2 181.303 567.21 179.953 567.21 183.903H567.22Z" fill="black"/>
<path d="M572.63 177.913V183.733C572.63 185.363 573.58 185.263 575.49 185.173V186.853C572.27 187.283 570.76 186.423 570.76 183.743V177.923H568.64V176.123H570.76V173.673L572.63 173.113V176.123H575.49V177.923H572.63V177.913Z" fill="black"/>
<path d="M578.02 172.903C578.02 172.213 578.58 171.633 579.29 171.633C580 171.633 580.54 172.213 580.54 172.903C580.54 173.593 579.98 174.153 579.29 174.153C578.6 174.153 578.02 173.593 578.02 172.903ZM578.34 176.103H580.21V186.843H578.34V176.103Z" fill="black"/>
<path d="M591.32 183.903C591.32 185.903 589.6 187.123 587.3 187.123C585.15 187.123 583.65 186.093 583.03 184.613L584.64 183.693C584.98 184.723 585.97 185.363 587.3 185.363C588.44 185.363 589.42 184.953 589.42 183.903C589.42 181.603 583.41 182.913 583.41 179.023C583.41 177.133 585.04 175.823 587.21 175.823C588.97 175.823 590.39 176.663 591.08 178.053L589.51 178.933C589.1 177.963 588.16 177.563 587.21 177.563C586.26 177.563 585.3 178.033 585.3 179.003C585.3 181.303 591.31 179.953 591.31 183.903H591.32Z" fill="black"/>
<path d="M601.13 183.903C601.13 185.903 599.41 187.123 597.11 187.123C594.96 187.123 593.46 186.093 592.84 184.613L594.45 183.693C594.79 184.723 595.78 185.363 597.11 185.363C598.25 185.363 599.23 184.953 599.23 183.903C599.23 181.603 593.22 182.913 593.22 179.023C593.22 177.133 594.85 175.823 597.02 175.823C598.78 175.823 600.2 176.663 600.89 178.053L599.32 178.933C598.91 177.963 597.97 177.563 597.02 177.563C596.07 177.563 595.11 178.033 595.11 179.003C595.11 181.303 601.12 179.953 601.12 183.903H601.13Z" fill="black"/>
<path d="M608.88 185.363C610.36 185.363 611.44 184.673 611.97 183.793L613.56 184.693C612.62 186.153 610.98 187.123 608.84 187.123C605.38 187.123 603.08 184.693 603.08 181.473C603.08 178.253 605.36 175.823 608.71 175.823C612.06 175.823 614.06 178.483 614.06 181.493C614.06 181.773 614.04 182.053 614 182.333H605C605.37 184.263 606.89 185.363 608.89 185.363H608.88ZM604.99 180.703H612.16C611.84 178.573 610.31 177.593 608.7 177.593C606.68 177.593 605.29 178.843 604.99 180.703Z" fill="black"/>
<path d="M632.48 180.163V186.843H630.61V180.223C630.61 178.523 629.66 177.603 628.25 177.603C626.75 177.603 625.61 178.553 625.61 180.863V186.833H623.74V180.213C623.74 178.513 622.86 177.593 621.46 177.593C620.06 177.593 618.71 178.543 618.71 180.853V186.823H616.84V176.083H618.71V177.523C619.48 176.323 620.6 175.803 621.91 175.803C623.37 175.803 624.44 176.473 625.07 177.633C625.82 176.413 627.04 175.803 628.44 175.803C630.82 175.803 632.48 177.453 632.48 180.143V180.163Z" fill="black"/>
<path d="M640.91 185.363C642.39 185.363 643.47 184.673 644 183.793L645.59 184.693C644.65 186.153 643.01 187.123 640.87 187.123C637.41 187.123 635.11 184.693 635.11 181.473C635.11 178.253 637.39 175.823 640.74 175.823C644.09 175.823 646.09 178.483 646.09 181.493C646.09 181.773 646.07 182.053 646.03 182.333H637.03C637.4 184.263 638.92 185.363 640.92 185.363H640.91ZM637.02 180.703H644.19C643.87 178.573 642.34 177.593 640.73 177.593C638.71 177.593 637.31 178.843 637.01 180.703H637.02Z" fill="black"/>
<path d="M658.39 180.253V186.843H656.52V180.353C656.52 178.593 655.51 177.603 653.86 177.603C652.21 177.603 650.75 178.613 650.75 181.143V186.833H648.88V176.093H650.75V177.643C651.54 176.373 652.72 175.813 654.23 175.813C656.74 175.813 658.4 177.493 658.4 180.243L658.39 180.253Z" fill="black"/>
<path d="M664.62 177.913V183.733C664.62 185.363 665.57 185.263 667.48 185.173V186.853C664.26 187.283 662.75 186.423 662.75 183.743V177.923H660.63V176.123H662.75V173.673L664.62 173.113V176.123H667.48V177.923H664.62V177.913Z" fill="black"/>
<path d="M677.44 183.903C677.44 185.903 675.72 187.123 673.42 187.123C671.27 187.123 669.77 186.093 669.15 184.613L670.76 183.693C671.1 184.723 672.09 185.363 673.42 185.363C674.56 185.363 675.54 184.953 675.54 183.903C675.54 181.603 669.53 182.913 669.53 179.023C669.53 177.133 671.16 175.823 673.33 175.823C675.09 175.823 676.51 176.663 677.2 178.053L675.63 178.933C675.22 177.963 674.28 177.563 673.33 177.563C672.38 177.563 671.42 178.033 671.42 179.003C671.42 181.303 677.43 179.953 677.43 183.903H677.44Z" fill="black"/>
<path d="M179.89 61.233C179.89 41.713 194.36 26.573 214.55 26.573C226.74 26.573 237.5 32.763 243.21 42.283L231.88 48.853C228.64 42.953 222.17 39.333 214.55 39.333C201.5 39.333 192.93 48.383 192.93 61.233C192.93 74.083 201.5 83.043 214.55 83.043C222.17 83.043 228.74 79.423 231.88 73.613L243.21 80.183C237.59 89.703 226.83 95.893 214.55 95.893C194.36 95.893 179.89 80.653 179.89 61.233Z" fill="black"/>
<path d="M268.25 27.9031V94.563H255.11V27.9031H268.25Z" fill="black"/>
<path d="M305.67 71.423H295.67V94.563H282.53V27.9031H309.19C321.47 27.9031 331.38 37.803 331.38 49.993C331.38 58.373 326.14 65.893 318.52 69.423L333.28 94.563H319.09L305.66 71.423H305.67ZM295.67 59.9031H309.19C314.14 59.9031 318.24 55.5231 318.24 50.0031C318.24 44.4831 314.14 40.1931 309.19 40.1931H295.67V59.9031Z" fill="black"/>
<path d="M340.99 61.233C340.99 41.713 356.32 26.573 375.56 26.573C394.8 26.573 410.22 41.713 410.22 61.233C410.22 80.753 394.79 95.893 375.56 95.893C356.33 95.893 340.99 80.653 340.99 61.233ZM397.08 61.233C397.08 48.373 387.65 39.333 375.56 39.333C363.47 39.333 354.04 48.383 354.04 61.233C354.04 74.083 363.47 83.043 375.56 83.043C387.65 83.043 397.08 73.993 397.08 61.233Z" fill="black"/>
<path d="M439.74 54.373H439.73C435.986 54.373 432.95 57.4086 432.95 61.1531V61.1631C432.95 64.9076 435.986 67.9431 439.73 67.9431H439.74C443.485 67.9431 446.52 64.9076 446.52 61.1631V61.1531C446.52 57.4086 443.485 54.373 439.74 54.373Z" fill="black"/>
<path d="M113.09 3.403L67.73 48.763C66.88 49.613 66.39 50.773 66.39 51.983V80.283C66.39 81.183 67.48 81.633 68.12 81.003L129.4 19.723C131.56 17.563 132.78 14.623 132.78 11.563C132.78 1.28298 120.35 -3.867 113.08 3.403H113.09Z" fill="#7A9D96"/>
<path d="M113.09 56.763L67.73 102.123C66.88 102.973 66.39 104.133 66.39 105.343V133.643C66.39 134.543 67.48 134.993 68.12 134.363L129.4 73.083C131.56 70.923 132.78 67.983 132.78 64.923C132.78 54.643 120.35 49.493 113.08 56.763H113.09Z" fill="#A8C208"/>
<path d="M59.89 183.783L2.69998 126.593C0.969982 124.863 0 122.523 0 120.083V36.173C0 31.093 4.11998 26.973 9.19998 26.973H54.89C56.02 26.973 56.94 27.893 56.94 29.023V48.013C56.94 49.143 56.02 50.063 54.89 50.063H25.12C23.99 50.063 23.07 50.983 23.07 52.113V113.513C23.07 114.053 23.29 114.573 23.67 114.963L64.94 156.233C65.74 157.033 67.03 157.033 67.83 156.233L113.07 110.993C120.34 103.723 132.77 108.873 132.77 119.153C132.77 122.213 131.55 125.153 129.39 127.313L72.89 183.813C69.3 187.403 63.47 187.403 59.88 183.813L59.89 183.783Z" fill="#023737"/>
<path d="M469.27 61.233C469.27 41.713 484.6 26.573 503.84 26.573C523.08 26.573 538.5 41.713 538.5 61.233C538.5 80.753 523.07 95.893 503.84 95.893C484.61 95.893 469.27 80.653 469.27 61.233ZM525.36 61.233C525.36 48.373 515.93 39.333 503.84 39.333C491.75 39.333 482.32 48.383 482.32 61.233C482.32 74.083 491.75 83.043 503.84 83.043C515.93 83.043 525.36 73.993 525.36 61.233Z" fill="black"/>
<path d="M548.49 61.233C548.49 41.713 562.96 26.573 583.15 26.573C595.34 26.573 606.1 32.763 611.81 42.283L600.48 48.853C597.24 42.953 590.77 39.333 583.15 39.333C570.1 39.333 561.53 48.383 561.53 61.233C561.53 74.083 570.1 83.043 583.15 83.043C590.77 83.043 597.34 79.423 600.48 73.613L611.81 80.183C606.19 89.703 595.43 95.893 583.15 95.893C562.96 95.893 548.49 80.653 548.49 61.233Z" fill="black"/>
<path d="M646.85 71.423H636.85V94.563H623.71V27.9031H650.37C662.65 27.9031 672.56 37.803 672.56 49.993C672.56 58.373 667.32 65.893 659.7 69.423L674.46 94.563H660.27L646.84 71.423H646.85ZM636.85 59.9031H650.37C655.32 59.9031 659.42 55.5231 659.42 50.0031C659.42 44.4831 655.32 40.1931 650.37 40.1931H636.85V59.9031Z" fill="black"/>
<path d="M699.61 27.9031V94.563H686.47V27.9031H699.61Z" fill="black"/>
</svg>
